<?xml version="1.0" encoding="utf-8"?>
<!-- Generator: Adobe Illustrator 16.0.4, SVG Export Plug-In . SVG Version: 6.00 Build 0)  -->
<!DOCTYPE svg PUBLIC "-//W3C//DTD SVG 1.1//EN" "http://www.w3.org/Graphics/SVG/1.1/DTD/svg11.dtd">
<svg version="1.1" id="Layer_1" xmlns="http://www.w3.org/2000/svg" xmlns:xlink="http://www.w3.org/1999/xlink" x="0px" y="0px"
	 width="192.77px" height="222.59px" viewBox="225.105 221.63 192.77 222.59" enable-background="new 225.105 221.63 192.77 222.59"
	 xml:space="preserve">
<polygon fill="#FFFFFF" points="417.874,388.573 321.49,444.22 225.105,388.573 225.105,277.278 321.49,221.63 417.874,277.277 "/>
<g>
	<path fill="#107BA3" d="M271.447,380.298c50.839,37.321,95.709,19.78,119.866,3.312c-16.217,0.166-16.217,0.166-8.191-8.023
		c15.97-24.491-16.579-35.309-16.745-51.522c-7.051,15.39,0.333,32.433-15.883,32.599c-16.217,0.166,8.022-8.191-16.715-48.482
		c-15.635,56.924-7.609,48.731,0.582,56.755c-8.025,8.193-24.325,0.252-16.467-24.157c-16.133,8.274-0.081-8.105-16.465-24.157
		c0,0,0.447,43.582-15.935,27.531C293.683,352.178,287.58,372.023,271.447,380.298z"/>
	<path fill="#107BA3" d="M250.812,382.119c62.406,9.106,93.802-27.435,107.411-53.31c-14.242,7.754-14.242,7.754-10.999-3.244
		c2.612-29.118-31.206-23.401-38.96-37.645c0.994,16.898,15.51,28.486,1.267,36.24c-14.243,7.755,3.244-10.998-37.507-34.975
		c12.898,57.604,16.143,46.606,27.141,49.851c-3.243,10.998-21.364,11.634-25.874-13.609c-10.366,14.876-3.876-7.122-25.874-13.61
		c0,0,20.84,38.278-1.157,31.79C257.258,346.852,261.179,367.243,250.812,382.119z"/>
	<g>
		
			<rect x="277.547" y="261.058" transform="matrix(0.8333 -0.5529 0.5529 0.8333 -124.8942 233.4516)" fill="#939598" stroke="#6D6E71" stroke-width="0.3947" stroke-miterlimit="10" width="94.097" height="125.464"/>
		
			<rect x="277.576" y="261.061" transform="matrix(0.9296 -0.3685 0.3685 0.9296 -96.4728 142.413)" fill="#BCBEC0" stroke="#6D6E71" stroke-width="0.3947" stroke-miterlimit="10" width="94.083" height="125.446"/>
		
			<rect x="277.569" y="261.068" transform="matrix(0.8879 -0.46 0.46 0.8879 -112.564 185.619)" fill="#F1F2F2" stroke="#808285" stroke-width="0.3676" stroke-miterlimit="10" width="94.087" height="125.45"/>
		<g>
			<g>
				
					<rect x="292.922" y="290.046" transform="matrix(-0.8873 0.4613 -0.4613 -0.8873 773.0604 474.1445)" fill="none" width="71.33" height="82.999"/>
				
					<text transform="matrix(0.8873 -0.4613 0.4613 0.8873 275.5676 300.3762)" fill="#00AEEF" font-family="'Courier'" font-size="10">FTR1Al8nsIj</text>
				
					<text transform="matrix(0.8873 -0.4613 0.4613 0.8873 281.1038 311.0227)" fill="#00AEEF" font-family="'Courier'" font-size="10">kjcO44XntU </text>
				
					<text transform="matrix(0.8873 -0.4613 0.4613 0.8873 286.6399 321.6702)" fill="#00AEEF" font-family="'Courier'" font-size="10">oTqhLk6RjgT</text>
				
					<text transform="matrix(0.8873 -0.4613 0.4613 0.8873 292.1741 332.3176)" fill="#00AEEF" font-family="'Courier'" font-size="10">F0DlMIRDzq </text>
				
					<text transform="matrix(0.8873 -0.4613 0.4613 0.8873 297.7092 342.9641)" fill="#00AEEF" font-family="'Courier'" font-size="10">YQ4owqtRR</text>
				
					<text transform="matrix(0.8873 -0.4613 0.4613 0.8873 302.7844 352.7239)" fill="#00AEEF" font-family="'Courier'" font-size="10">aRJvFMhFZ8</text>
				
					<text transform="matrix(0.8873 -0.4613 0.4613 0.8873 307.8577 362.4836)" fill="#00AEEF" font-family="'Courier'" font-size="10">OOE</text>
			</g>
		</g>
	</g>
	<path fill="#939598" d="M284.648,367.637c38.313,28.127,72.13,14.907,90.337,2.498c-12.222,0.125-12.222,0.125-6.175-6.049
		c12.035-18.457-12.495-26.609-12.619-38.829c-5.313,11.598,0.25,24.439-11.972,24.564c-12.222,0.128,6.048-6.172-12.597-36.537
		c-11.782,42.9-5.734,36.726,0.438,42.773c-6.049,6.174-18.333,0.189-12.41-18.206c-12.158,6.236-0.062-6.109-12.408-18.207
		c0,0,0.336,32.844-12.01,20.75C301.407,346.445,296.807,361.4,284.648,367.637z"/>
	<path fill="#BCBEC0" d="M364.293,387.947c-49.588,23.428-84.979,1.011-102.871-17.053c13.814,2.831,13.814,2.831,8.323-5.492
		c-9.568-23.555,20.01-27.39,22.843-41.204c3.464,14.308-5.666,27.63,8.149,30.462s-5.49-8.323,22.311-38.614
		c3.902,51.186-1.588,42.862-9.912,48.354c5.491,8.322,20.725,4.248,18.064-17.891c12.397,9.738,1.414-6.908,18.062-17.892
		c0,0-7.608,37.128,9.035,26.146C349.977,360.255,351.895,378.209,364.293,387.947z"/>
	<path fill="#00AEEF" stroke="#107BA3" stroke-miterlimit="10" d="M366.086,385.646c-50.454,37.84-95.5,20.76-119.826,4.542
		c16.217,0,16.217,0,8.108-8.108c-16.218-24.324,16.217-35.475,16.217-51.691c7.207,15.317,0,32.435,16.217,32.435
		s-8.108-8.107,16.217-48.65c16.218,56.761,8.109,48.65,0,56.761c8.109,8.107,24.327,0,16.218-24.327
		c16.217,8.108,0-8.107,16.217-24.326c0,0,0,43.583,16.217,27.367C343.563,357.754,349.869,377.537,366.086,385.646z"/>
</g>
</svg>
