<?xml version="1.0" encoding="utf-8"?>
<!-- Generator: Adobe Illustrator 16.0.4, SVG Export Plug-In . SVG Version: 6.00 Build 0)  -->
<!DOCTYPE svg PUBLIC "-//W3C//DTD SVG 1.1//EN" "http://www.w3.org/Graphics/SVG/1.1/DTD/svg11.dtd">
<svg version="1.1" id="Layer_1" xmlns="http://www.w3.org/2000/svg" xmlns:xlink="http://www.w3.org/1999/xlink" x="0px" y="0px"
	 width="201.138px" height="223.135px" viewBox="223.431 144.182 201.138 223.135"
	 enable-background="new 223.431 144.182 201.138 223.135" xml:space="preserve">
<rect x="223.594" y="144.345" fill="none" stroke="#FFFFFF" stroke-width="0.3264" stroke-miterlimit="10" width="200.812" height="222.809"/>
<g>
	<g>
		
			<rect x="275.682" y="224.176" transform="matrix(-0.9906 -0.1365 0.1365 -0.9906 603.2682 615.165)" fill="#939598" width="94.086" height="125.447"/>
		
			<rect x="277.571" y="222.792" transform="matrix(-0.9854 0.1705 -0.1705 -0.9854 693.1571 511.498)" fill="#BCBEC0" width="94.085" height="125.446"/>
		<g>
			
				<rect x="275.83" y="222.789" fill="#F1F2F2" stroke="#808285" stroke-width="0.3676" stroke-miterlimit="10" width="94.089" height="125.453"/>
			
				<rect x="287.176" y="233.813" fill="#939598" stroke="#6D6E71" stroke-width="0.3947" stroke-miterlimit="10" width="70.566" height="3.92"/>
			
				<rect x="287.176" y="241.654" fill="#939598" stroke="#6D6E71" stroke-width="0.3947" stroke-miterlimit="10" width="70.566" height="3.92"/>
			
				<rect x="287.176" y="249.495" fill="#939598" stroke="#6D6E71" stroke-width="0.3947" stroke-miterlimit="10" width="70.566" height="3.92"/>
			
				<rect x="287.176" y="257.336" fill="#939598" stroke="#6D6E71" stroke-width="0.3947" stroke-miterlimit="10" width="70.566" height="3.92"/>
			
				<rect x="287.176" y="265.177" fill="#939598" stroke="#6D6E71" stroke-width="0.3947" stroke-miterlimit="10" width="47.045" height="3.92"/>
		</g>
	</g>
	<g>
		<g>
			<path fill="#00AEEF" d="M409.107,194.261c12.062-18.66,15.468-35.412,11.05-42.775c-7.843,1.96-17.419,11.206-26.767,23.314
				l1.817,12.724l-3.504-10.51c-2.107,2.814-4.196,5.763-6.246,8.793l1.434,10.034l-2.71-8.129
				c-1.551,2.337-3.076,4.716-4.563,7.114l1.729,12.104l-3.223-9.668c-10.688,17.603-19.249,35.801-21.726,45.706
				c14.765-8.548,26.914-18.403,36.572-28.467l-6.079-2.027l7.046,1.007c2.818-2.992,5.42-5.999,7.803-8.994l-9.304-3.101
				l10.554,1.507c1.898-2.46,3.65-4.907,5.26-7.325l-7.498-2.499L409.107,194.261z"/>
		</g>
		<g>
			<path fill="#D1D3D4" d="M334.221,265.361c-0.056,0-0.111-0.021-0.154-0.064c-0.085-0.085-0.085-0.223,0-0.308
				c0.055-0.055,5.48-5.546,5.48-10.935c0-0.067,0.031-0.13,0.084-0.172c24.414-18.989,40.822-40.463,74.801-91.43
				c0.042-0.062,0.111-0.097,0.181-0.097c0.034,0,0.068,0.008,0.1,0.024c0.099,0.051,0.144,0.167,0.104,0.271
				c-11.848,31.594-35.9,58.482-53.462,78.116c-6.802,7.601-12.673,14.167-15.864,18.953c-0.04,0.061-0.108,0.097-0.181,0.097
				c-5.392,0-10.88,5.426-10.935,5.48C334.332,265.34,334.276,265.361,334.221,265.361z"/>
			<path fill="#A7A9AC" d="M414.613,162.574c-16.633,44.354-58.215,80.392-69.304,97.024c-5.544,0-11.089,5.545-11.089,5.545
				s5.545-5.545,5.545-11.089C364.714,234.649,381.347,212.472,414.613,162.574 M414.613,162.138c-0.141,0-0.279,0.069-0.362,0.194
				c-33.964,50.945-50.362,72.408-74.753,91.378c-0.105,0.083-0.168,0.209-0.168,0.344c0,5.296-5.363,10.727-5.417,10.781
				c-0.171,0.17-0.171,0.445,0,0.616c0.085,0.085,0.196,0.127,0.308,0.127s0.223-0.042,0.308-0.127
				c0.054-0.054,5.484-5.417,10.781-5.417c0.146,0,0.281-0.073,0.362-0.194c3.182-4.773,9.051-11.333,15.844-18.929
				c8.453-9.449,18.974-21.21,28.722-34.401c11.428-15.464,19.534-29.786,24.784-43.784c0.076-0.208-0.014-0.44-0.209-0.541
				C414.748,162.153,414.681,162.138,414.613,162.138L414.613,162.138z"/>
		</g>
	</g>
</g>
</svg>
