<?xml version="1.0" encoding="utf-8"?>
<!-- Generator: Adobe Illustrator 16.0.4, SVG Export Plug-In . SVG Version: 6.00 Build 0)  -->
<!DOCTYPE svg PUBLIC "-//W3C//DTD SVG 1.1//EN" "http://www.w3.org/Graphics/SVG/1.1/DTD/svg11.dtd">
<svg version="1.1" id="Layer_1" xmlns="http://www.w3.org/2000/svg" xmlns:xlink="http://www.w3.org/1999/xlink" x="0px" y="0px"
	 width="192.77px" height="222.59px" viewBox="-12.896 -55.896 192.77 222.59"
	 enable-background="new -12.896 -55.896 192.77 222.59" xml:space="preserve">
<polygon fill="#FFFFFF" points="179.874,111.047 83.489,166.694 -12.895,111.047 -12.896,-0.248 83.489,-55.896 179.874,-0.249 "/>
<g>
	
		<rect x="5.082" y="10.019" transform="matrix(-0.9923 0.1238 -0.1238 -0.9923 169.7044 101.4353)" fill="#939598" stroke="#6D6E71" stroke-width="0.4257" stroke-miterlimit="10" width="153.237" height="91.942"/>
	
		<rect x="5.079" y="10.024" transform="matrix(-0.9976 -0.0689 0.0689 -0.9976 159.3378 117.4852)" fill="#BCBEC0" stroke="#6D6E71" stroke-width="0.4257" stroke-miterlimit="10" width="153.233" height="91.941"/>
	
		<rect x="6.349" y="8.557" fill="#F1F2F2" stroke="#6D6E71" stroke-width="0.4257" stroke-linejoin="round" stroke-miterlimit="10" width="153.238" height="91.941"/>
	
		<rect x="15.976" y="29.094" fill="#939598" stroke="#6D6E71" stroke-width="1.7635" stroke-miterlimit="10" width="133.984" height="30.076"/>
	<rect x="62.881" y="38.144" fill="#00AEEF" width="40.166" height="15.904"/>
	<rect x="107.898" y="38.144" fill="#00AEEF" width="40.705" height="15.904"/>
	<text transform="matrix(1 0 0 1 17.0542 48.3877)"><tspan x="0" y="0" font-family="'Courier'" font-size="12.9393">/show/</tspan><tspan x="46.589" y="0" fill="#FFFFFF" font-family="'Courier'" font-size="12.9393">a-b-</tspan><tspan x="77.648" y="0" fill="#FFFFFF" font-family="'Courier'" font-size="12.9393">c</tspan><tspan x="84.637" y="0" font-family="'Courier'" font-size="12.9393">/</tspan><tspan x="92.402" y="0" fill="#FFFFFF" font-family="'Courier'" font-size="12.9393">pnfS</tspan><tspan x="123.461" y="0" fill="#FFFFFF" font-family="'Courier'" font-size="12.9393">9</tspan></text>
</g>
</svg>
