<?xml version="1.0" encoding="utf-8"?>
<!-- Generator: Adobe Illustrator 16.0.4, SVG Export Plug-In . SVG Version: 6.00 Build 0)  -->
<!DOCTYPE svg PUBLIC "-//W3C//DTD SVG 1.1//EN" "http://www.w3.org/Graphics/SVG/1.1/DTD/svg11.dtd">
<svg version="1.1" id="Layer_1" xmlns="http://www.w3.org/2000/svg" xmlns:xlink="http://www.w3.org/1999/xlink" x="0px" y="0px"
	 width="192.77px" height="222.59px" viewBox="4.615 -0.297 192.77 222.59" enable-background="new 4.615 -0.297 192.77 222.59"
	 xml:space="preserve">
<polygon fill="#FFFFFF" points="197.384,166.646 100.999,222.293 4.615,166.646 4.615,55.351 100.999,-0.297 197.384,55.35 "/>
<g>
	<g>
		
			<rect x="51.694" y="50.185" transform="matrix(0.9906 0.1365 -0.1365 0.9906 16.3359 -12.4206)" fill="#939598" width="94.075" height="125.433"/>
		
			<rect x="53.564" y="48.774" transform="matrix(0.9854 -0.1705 0.1705 0.9854 -17.5378 18.7863)" fill="#BCBEC0" width="94.097" height="125.462"/>
		<g>
			
				<rect x="51.76" y="48.789" fill="#F1F2F2" stroke="#808285" stroke-width="0.3676" stroke-miterlimit="10" width="94.09" height="125.453"/>
			<rect x="63.139" y="69.401" fill="none" width="71.332" height="83"/>
			<text transform="matrix(1 0 0 1 63.1404 75.7913)" fill="#00AEEF" font-family="'Courier'" font-size="10">FTR1Al8nsIj</text>
			<text transform="matrix(1 0 0 1 63.1404 87.7913)" fill="#00AEEF" font-family="'Courier'" font-size="10">kjcO44XntU </text>
			<text transform="matrix(1 0 0 1 63.1404 99.7913)" fill="#00AEEF" font-family="'Courier'" font-size="10">oTqhLk6RjgT</text>
			<text transform="matrix(1 0 0 1 63.1404 111.7913)" fill="#00AEEF" font-family="'Courier'" font-size="10">F0DlMIRDzq </text>
			<text transform="matrix(1 0 0 1 63.1404 123.7913)" fill="#00AEEF" font-family="'Courier'" font-size="10">YQ4owqtRR</text>
			<text transform="matrix(1 0 0 1 63.1404 134.7913)" fill="#00AEEF" font-family="'Courier'" font-size="10">aRJvFMhFZ8</text>
			<text transform="matrix(1 0 0 1 63.1404 145.7913)" fill="#00AEEF" font-family="'Courier'" font-size="10">OOE</text>
		</g>
	</g>
</g>
</svg>
