<?xml version="1.0" encoding="utf-8"?>
<!-- Generator: Adobe Illustrator 16.0.4, SVG Export Plug-In . SVG Version: 6.00 Build 0)  -->
<!DOCTYPE svg PUBLIC "-//W3C//DTD SVG 1.1//EN" "http://www.w3.org/Graphics/SVG/1.1/DTD/svg11.dtd">
<svg version="1.1" id="Layer_1" xmlns="http://www.w3.org/2000/svg" xmlns:xlink="http://www.w3.org/1999/xlink" x="0px" y="0px"
	 width="179.307px" height="179.307px" viewBox="234.346 234.346 179.307 179.307"
	 enable-background="new 234.346 234.346 179.307 179.307" xml:space="preserve">
<rect x="234.484" y="234.484" fill="none" stroke="#FFFFFF" stroke-width="0.2763" stroke-miterlimit="10" width="179.031" height="179.031"/>
<g>
	<path fill="#107BA3" d="M271.447,380.298c50.838,37.321,95.708,19.78,119.866,3.313c-16.217,0.166-16.217,0.166-8.192-8.024
		c15.97-24.491-16.579-35.308-16.745-51.522c-7.051,15.389,0.333,32.432-15.883,32.598c-16.217,0.166,8.023-8.191-16.715-48.482
		c-15.634,56.924-7.609,48.731,0.582,56.755c-8.025,8.193-24.325,0.252-16.466-24.157c-16.133,8.274-0.082-8.106-16.465-24.158
		c0,0,0.447,43.582-15.935,27.532C293.683,352.178,287.58,372.023,271.447,380.298z"/>
	<path fill="#107BA3" d="M250.812,382.119c62.406,9.107,93.801-27.434,107.411-53.309c-14.243,7.754-14.243,7.754-10.999-3.244
		c2.612-29.119-31.206-23.402-38.96-37.645c0.994,16.899,15.509,28.486,1.266,36.24c-14.243,7.755,3.244-10.998-37.506-34.974
		c12.898,57.604,16.142,46.606,27.14,49.85c-3.243,10.998-21.364,11.634-25.874-13.609c-10.366,14.876-3.876-7.122-25.874-13.61
		c0,0,20.84,38.278-1.157,31.79C257.258,346.852,261.179,367.243,250.812,382.119z"/>
	<g>
		
			<rect x="277.57" y="261.063" transform="matrix(-0.8333 0.5529 -0.5529 -0.8333 774.1237 414.1254)" fill="#939598" stroke="#6D6E71" stroke-width="0.3947" stroke-miterlimit="10" width="94.093" height="125.458"/>
		
			<rect x="277.564" y="261.055" transform="matrix(-0.9296 0.3685 -0.3685 -0.9296 745.6855 505.1517)" fill="#BCBEC0" stroke="#6D6E71" stroke-width="0.3947" stroke-miterlimit="10" width="94.086" height="125.449"/>
		
			<rect x="277.561" y="261.064" transform="matrix(-0.8879 0.46 -0.46 -0.8879 761.7717 461.9679)" fill="#F1F2F2" stroke="#808285" stroke-width="0.3676" stroke-miterlimit="10" width="94.088" height="125.451"/>
		
			<rect x="266.072" y="277.854" transform="matrix(-0.8879 0.46 -0.46 -0.8879 697.6498 389.6397)" fill="#939598" stroke="#6D6E71" stroke-width="0.3947" stroke-miterlimit="10" width="70.566" height="3.921"/>
		
			<rect x="269.679" y="284.816" transform="matrix(-0.8879 0.46 -0.46 -0.8879 707.6619 401.1246)" fill="#939598" stroke="#6D6E71" stroke-width="0.3947" stroke-miterlimit="10" width="70.566" height="3.92"/>
		
			<rect x="273.286" y="291.778" transform="matrix(-0.8879 0.46 -0.46 -0.8879 717.6733 412.61)" fill="#939598" stroke="#6D6E71" stroke-width="0.3947" stroke-miterlimit="10" width="70.566" height="3.921"/>
		
			<rect x="276.892" y="298.74" transform="matrix(-0.8879 0.46 -0.46 -0.8879 727.685 424.0918)" fill="#939598" stroke="#6D6E71" stroke-width="0.3947" stroke-miterlimit="10" width="70.566" height="3.921"/>
		
			<rect x="281.816" y="311.114" transform="matrix(-0.8879 0.46 -0.46 -0.8879 720.4689 450.601)" fill="#939598" stroke="#6D6E71" stroke-width="0.3947" stroke-miterlimit="10" width="47.044" height="3.921"/>
	</g>
	<path fill="#939598" d="M284.648,367.637c38.313,28.127,72.129,14.907,90.336,2.498c-12.221,0.125-12.221,0.125-6.174-6.049
		c12.035-18.457-12.496-26.609-12.62-38.829c-5.313,11.598,0.25,24.44-11.971,24.565c-12.222,0.127,6.048-6.172-12.597-36.538
		c-11.782,42.901-5.734,36.726,0.439,42.774c-6.049,6.174-18.333,0.189-12.411-18.206c-12.158,6.236-0.062-6.11-12.408-18.207
		c0,0,0.336,32.844-12.009,20.75C301.407,346.445,296.807,361.4,284.648,367.637z"/>
	<path fill="#BCBEC0" d="M364.293,387.947c-49.588,23.427-84.979,1.01-102.871-17.053c13.815,2.831,13.815,2.831,8.323-5.492
		c-9.568-23.555,20.01-27.39,22.843-41.204c3.464,14.307-5.666,27.629,8.15,30.461c13.815,2.832-5.491-8.323,22.31-38.614
		c3.902,51.186-1.588,42.862-9.912,48.354c5.491,8.322,20.724,4.248,18.064-17.891c12.398,9.738,1.414-6.908,18.062-17.892
		c0,0-7.609,37.128,9.035,26.146C349.977,360.255,351.895,378.209,364.293,387.947z"/>
	<path fill="#00AEEF" stroke="#107BA3" stroke-miterlimit="10" d="M366.086,385.646c-50.454,37.839-95.5,20.759-119.826,4.542
		c16.217,0,16.217,0,8.108-8.109c-16.217-24.324,16.217-35.474,16.217-51.691c7.207,15.317,0,32.435,16.217,32.435
		c16.217,0-8.108-8.108,16.217-48.651c16.217,56.761,8.109,48.651,0,56.761c8.109,8.107,24.327,0,16.217-24.327
		c16.217,8.108,0-8.108,16.217-24.326c0,0,0,43.583,16.217,27.367C343.562,357.754,349.869,377.537,366.086,385.646z"/>
</g>
</svg>
