<?xml version="1.0" encoding="utf-8"?>
<!-- Generator: Adobe Illustrator 16.0.4, SVG Export Plug-In . SVG Version: 6.00 Build 0)  -->
<!DOCTYPE svg PUBLIC "-//W3C//DTD SVG 1.1//EN" "http://www.w3.org/Graphics/SVG/1.1/DTD/svg11.dtd">
<svg version="1.1" id="Layer_1" xmlns="http://www.w3.org/2000/svg" xmlns:xlink="http://www.w3.org/1999/xlink" x="0px" y="0px"
	 width="192.77px" height="222.59px" viewBox="-12.731 -18.866 192.77 222.59"
	 enable-background="new -12.731 -18.866 192.77 222.59" xml:space="preserve">
<polygon fill="#FFFFFF" points="180.039,148.076 83.654,203.724 -12.731,148.076 -12.731,36.781 83.654,-18.866 180.039,36.781 "/>
<g>
	<polygon fill="#00AEEF" stroke="#6D6E71" stroke-width="0.3947" stroke-miterlimit="10" points="82.912,46.545 10.382,89.67 
		10.382,175.918 155.437,175.918 155.437,89.67 	"/>
	<g>
		
			<rect x="37.682" y="19.067" transform="matrix(-0.9906 -0.1365 0.1365 -0.9906 157.4856 174.3716)" fill="#939598" width="94.079" height="125.438"/>
		
			<rect x="39.571" y="17.666" transform="matrix(-0.9854 0.1705 -0.1705 -0.9854 185.6694 144.844)" fill="#BCBEC0" width="94.09" height="125.456"/>
		<g>
			
				<rect x="37.826" y="17.674" fill="#F1F2F2" stroke="#808285" stroke-width="0.3676" stroke-miterlimit="10" width="94.09" height="125.453"/>
			<g>
				<rect x="48.139" y="57.401" fill="none" width="71.332" height="83"/>
				<text transform="matrix(1 0 0 1 51.1401 46.7913)" fill="#00AEEF" font-family="'Courier'" font-size="10">FTR1Al8nsIj</text>
				<text transform="matrix(1 0 0 1 51.1401 58.7913)" fill="#00AEEF" font-family="'Courier'" font-size="10">kjcO44XntU </text>
				<text transform="matrix(1 0 0 1 51.1401 70.7913)" fill="#00AEEF" font-family="'Courier'" font-size="10">oTqhLk6RjgT</text>
				<text transform="matrix(1 0 0 1 51.1401 82.7913)" fill="#00AEEF" font-family="'Courier'" font-size="10">F0DlMIRDzq </text>
				<text transform="matrix(1 0 0 1 51.1401 94.7913)" fill="#00AEEF" font-family="'Courier'" font-size="10">YQ4owqtRR</text>
				<text transform="matrix(1 0 0 1 51.1401 105.7913)" fill="#00AEEF" font-family="'Courier'" font-size="10">aRJvFMhFZ8</text>
				<text transform="matrix(1 0 0 1 51.1401 116.7913)" fill="#00AEEF" font-family="'Courier'" font-size="10">OOE</text>
			</g>
		</g>
	</g>
	<polygon fill="#BCBEC0" stroke="#6D6E71" stroke-width="0.3947" stroke-miterlimit="10" points="10.382,89.67 155.437,175.918 
		10.382,175.918 	"/>
	<polygon fill="#F1F2F2" stroke="#6D6E71" stroke-width="0.3947" stroke-linejoin="round" stroke-miterlimit="10" points="
		10.382,175.918 155.437,89.67 155.437,175.918 	"/>
</g>
</svg>
