<?xml version="1.0" encoding="utf-8"?>
<!-- Generator: Adobe Illustrator 16.0.4, SVG Export Plug-In . SVG Version: 6.00 Build 0)  -->
<!DOCTYPE svg PUBLIC "-//W3C//DTD SVG 1.1//EN" "http://www.w3.org/Graphics/SVG/1.1/DTD/svg11.dtd">
<svg version="1.1" id="Layer_1" xmlns="http://www.w3.org/2000/svg" xmlns:xlink="http://www.w3.org/1999/xlink" x="0px" y="0px"
	 width="161.87px" height="178.858px" viewBox="241.065 265.072 161.87 178.858"
	 enable-background="new 241.065 265.072 161.87 178.858" xml:space="preserve">
<rect x="241.196" y="265.202" fill="none" stroke="#FFFFFF" stroke-width="0.2622" stroke-miterlimit="10" width="161.608" height="178.597"/>
<g>
	<polygon fill="#00AEEF" stroke="#6D6E71" stroke-width="0.3947" stroke-miterlimit="10" points="320.912,306.545 248.382,349.67 
		248.382,435.918 393.437,435.918 393.437,349.67 	"/>
	<g>
		
			<rect x="275.691" y="279.08" transform="matrix(0.9906 0.1365 -0.1365 0.9906 49.679 -40.8555)" fill="#939598" width="94.082" height="125.443"/>
		
			<rect x="277.556" y="277.657" transform="matrix(0.9854 -0.1705 0.1705 0.9854 -53.2801 60.3252)" fill="#BCBEC0" width="94.087" height="125.451"/>
		<g>
			
				<rect x="275.826" y="277.674" fill="#F1F2F2" stroke="#808285" stroke-width="0.3676" stroke-miterlimit="10" width="94.09" height="125.453"/>
			
				<rect x="287.171" y="288.699" fill="#939598" stroke="#6D6E71" stroke-width="0.3947" stroke-miterlimit="10" width="70.568" height="3.92"/>
			
				<rect x="287.171" y="296.54" fill="#939598" stroke="#6D6E71" stroke-width="0.3947" stroke-miterlimit="10" width="70.568" height="3.92"/>
			
				<rect x="287.171" y="304.38" fill="#939598" stroke="#6D6E71" stroke-width="0.3947" stroke-miterlimit="10" width="70.568" height="3.92"/>
			
				<rect x="287.171" y="312.221" fill="#939598" stroke="#6D6E71" stroke-width="0.3947" stroke-miterlimit="10" width="70.568" height="3.92"/>
			
				<rect x="287.171" y="320.062" fill="#939598" stroke="#6D6E71" stroke-width="0.3947" stroke-miterlimit="10" width="47.045" height="3.921"/>
		</g>
	</g>
	<polygon fill="#BCBEC0" stroke="#6D6E71" stroke-width="0.3947" stroke-miterlimit="10" points="248.382,349.67 393.437,435.918 
		248.382,435.918 	"/>
	<polygon fill="#F1F2F2" stroke="#6D6E71" stroke-width="0.3947" stroke-linejoin="round" stroke-miterlimit="10" points="
		248.382,435.918 393.437,349.67 393.437,435.918 	"/>
</g>
</svg>
